<svg width="129" height="160" viewBox="0 0 129 160" fill="none" xmlns="http://www.w3.org/2000/svg">
<g clip-path="url(#clip0_113_106)">
<path d="M0 23L0 137C0 149.703 10.2975 160 23 160H106C118.703 160 129 149.703 129 137V23C129 10.2975 118.703 0 106 0H23C10.2975 0 0 10.2975 0 23Z" fill="#FAAF40"/>
<mask id="mask0_113_106" style="mask-type:luminance" maskUnits="userSpaceOnUse" x="38" y="51" width="53" height="59">
<path d="M91 51H38V110H91V51Z" fill="white"/>
</mask>
<g mask="url(#mask0_113_106)">
<path d="M61.0731 51.3337C57.7949 52.0352 54.9964 54.0709 53.2716 57.0037C52.3235 58.6023 51.7067 60.8335 51.7067 62.6391V63.6512H47.2177C43.5625 63.6512 42.6031 63.6857 42.0548 63.8237C39.8731 64.3988 38.3768 66.1239 38.1026 68.3896C38.0341 68.9992 37.9998 75.8423 38.0227 87.5158L38.0569 105.687L38.3311 106.423C38.8794 107.907 40.2272 109.241 41.6893 109.736C42.249 109.931 43.4826 109.943 61.9298 109.977C75.8309 110 81.7934 109.977 82.3188 109.885C83.4039 109.701 84.649 109.057 85.4028 108.286C86.5337 107.148 86.7735 106.331 86.7735 103.525V101.834H84.8888H83.0041V103.065C82.9927 104.848 82.6158 105.561 81.5192 105.86C81.2337 105.94 74.7457 105.963 62.3067 105.952L43.5397 105.917L43.1056 105.641C42.8658 105.503 42.5802 105.181 42.4546 104.928C42.2261 104.491 42.2261 104.169 42.2261 86.5612V68.6312L42.4888 68.2401C42.6259 68.0331 42.9229 67.7341 43.1285 67.5961C43.5169 67.3315 43.5283 67.3315 48.0173 67.3315H52.5177L52.7576 67.8721C52.8947 68.1826 53.1231 68.6196 53.2716 68.8497L53.5343 69.2867H50.4046C46.3839 69.2867 46.6809 69.1142 46.6809 71.4259V73.082H63.6774C82.6615 73.082 81.2908 73.0245 82.1817 73.8986C82.7757 74.4966 83.0041 75.1752 83.0041 76.3253V77.2224H84.8317H86.6593V75.8653C86.6593 74.4161 86.4766 73.3811 86.0768 72.5875C85.7227 71.8744 85.0259 71.0004 84.5005 70.6093L84.0322 70.2643V69.4017C84.0322 67.7571 83.5296 66.5035 82.433 65.3879C81.1309 64.0538 79.8972 63.6512 77.0988 63.6512H75.2369V62.8692C75.2369 62.4436 75.1569 61.6271 75.0656 61.0635C74.2888 56.2101 70.5994 52.3343 65.8134 51.3337C64.4656 51.0577 62.3981 51.0577 61.0731 51.3337ZM68.3378 58.6138C69.4686 59.7754 69.6399 60.0054 69.56 60.3274C69.48 60.6265 61.7813 67.9296 61.5871 67.8836C61.5072 67.8606 60.4677 66.9405 59.2798 65.8364C56.4813 63.2142 56.5955 63.3407 56.6412 63.0762C56.6869 62.7657 58.8686 60.546 59.1313 60.546C59.2455 60.546 59.8623 61.052 60.502 61.6616L61.6556 62.7657L64.2485 60.1664C65.9162 58.4873 66.9214 57.5557 67.0699 57.5557C67.2069 57.5557 67.7095 57.9697 68.3378 58.6138ZM80.6854 67.6306C81.0623 67.9181 81.5192 68.6657 81.5192 69.0222V69.2867H77.4757H73.4322L73.9119 68.3091L74.3802 67.343L77.3729 67.366C80.2056 67.389 80.377 67.4005 80.6854 67.6306Z" fill="#0E6B81"/>
<path d="M73.433 77.1037C71.2174 77.4783 69.2391 78.804 67.5774 81.0231C66.5826 82.3632 65.8817 83.8619 65.3843 85.7063C65.0226 87.0609 65.0113 87.1761 65 89.4098C65 92.0612 65.1243 92.8105 65.893 94.8856C67.2609 98.5745 70.053 101.24 73.2183 101.874C73.7948 101.99 76.2591 102.018 81.3913 101.99C88.66 101.946 88.7391 101.946 89.1913 101.629C89.8018 101.212 90.4235 100.39 90.74 99.5832L91 98.9203V89.5538V80.1874L90.6835 79.366C90.3218 78.4437 89.7792 77.7665 89.033 77.3198C88.5244 77.0172 88.3774 77.0172 81.3348 77.0028C77.3895 76.9883 73.8287 77.0316 73.433 77.1037ZM86.7609 89.4818V97.4072H80.4983H74.2244L73.3426 97.047C70.8104 96.0239 69.013 92.9401 69.013 89.5971C69.013 88.2713 69.1939 87.2914 69.6574 86.0379C70.1773 84.6257 71.3531 83.127 72.4382 82.4497C73.7835 81.5996 73.9982 81.5852 80.6905 81.5708L86.7609 81.5563V89.4818Z" fill="#0E6B81"/>
<path d="M77.0643 87.5274C76.2305 87.8955 75.7736 88.5625 75.7736 89.4711C75.7622 90.5292 76.3676 91.3113 77.4413 91.6103C78.3094 91.8403 79.4173 91.2883 79.8171 90.4027C80.6053 88.6545 78.8005 86.7684 77.0643 87.5274Z" fill="#0E6B81"/>
</g>
</g>
<defs>
<clipPath id="clip0_113_106">
<rect width="129" height="160" fill="white"/>
</clipPath>
</defs>
</svg>
