<svg width="129" height="160" viewBox="0 0 129 160" fill="none" xmlns="http://www.w3.org/2000/svg">
<g clip-path="url(#clip0_113_122)">
<path d="M0 23L0 137C0 149.703 10.2975 160 23 160H106C118.703 160 129 149.703 129 137V23C129 10.2975 118.703 0 106 0H23C10.2975 0 0 10.2975 0 23Z" fill="#FAAF40"/>
<path d="M44.6367 48.9409C44.3273 49.2374 44.3145 49.3147 44.3145 51.0034V52.7437H42.5742C40.8855 52.7437 40.8082 52.7565 40.5117 53.0659L40.1895 53.3753V81.6187V109.862L40.5117 110.171L40.8211 110.494H61.8457H82.8703L83.1797 110.171C83.4891 109.875 83.502 109.798 83.502 108.109V106.369H85.2422C86.9309 106.369 87.0082 106.356 87.3047 106.046L87.627 105.737V81.5929V57.4487L83.2055 53.0401L78.7969 48.6187H61.8715H44.9461L44.6367 48.9409ZM77.3145 54.4839V58.2995L77.6367 58.6089L77.9461 58.9312H81.7617H85.5645V81.6187V104.306H65.9707H46.377V77.4937V50.6812H61.8457H77.3145V54.4839ZM81.7617 54.5483L84.082 56.8687H81.723H79.377V54.5483C79.377 53.2722 79.3898 52.228 79.4156 52.228C79.4285 52.228 80.4855 53.2722 81.7617 54.5483ZM44.3145 80.2651V105.737L44.6367 106.046L44.9461 106.369H63.1992H81.4395V107.4V108.431H61.8457H42.252V81.6187V54.8062H43.2832H44.3145V80.2651Z" fill="#0E6B81"/>
<path d="M61.1367 57.1909C60.9305 57.3843 60.8145 57.655 60.8145 57.8999C60.8145 58.1448 60.9305 58.4155 61.1367 58.6089L61.4461 58.9312H67.002H72.5578L72.8672 58.6089C73.0734 58.4155 73.1895 58.1448 73.1895 57.8999C73.1895 57.655 73.0734 57.3843 72.8672 57.1909L72.5578 56.8687H67.002H61.4461L61.1367 57.1909Z" fill="#0E6B81"/>
<path d="M54.9492 63.3784C54.743 63.5718 54.627 63.8425 54.627 64.0874C54.627 64.3323 54.743 64.603 54.9492 64.7964L55.2586 65.1187H60.8145H66.3703L66.6797 64.7964C66.8859 64.603 67.002 64.3323 67.002 64.0874C67.002 63.8425 66.8859 63.5718 66.6797 63.3784L66.3703 63.0562H60.8145H55.2586L54.9492 63.3784Z" fill="#0E6B81"/>
<path d="M69.3867 63.3784C69.1805 63.5718 69.0645 63.8425 69.0645 64.0874C69.0645 64.3323 69.1805 64.603 69.3867 64.7964L69.6961 65.1187H75.252H80.8078L81.1172 64.7964C81.3234 64.603 81.4395 64.3323 81.4395 64.0874C81.4395 63.8425 81.3234 63.5718 81.1172 63.3784L80.8078 63.0562H75.252H69.6961L69.3867 63.3784Z" fill="#0E6B81"/>
<path d="M50.8242 69.5659C50.618 69.7593 50.502 70.03 50.502 70.2749C50.502 70.5198 50.618 70.7905 50.8242 70.9839L51.1336 71.3062H54.627H58.1203L58.4297 70.9839C58.6359 70.7905 58.752 70.5198 58.752 70.2749C58.752 70.03 58.6359 69.7593 58.4297 69.5659L58.1203 69.2437H54.627H51.1336L50.8242 69.5659Z" fill="#0E6B81"/>
<path d="M61.1367 69.5659C60.9305 69.7593 60.8145 70.03 60.8145 70.2749C60.8145 70.5198 60.9305 70.7905 61.1367 70.9839L61.4461 71.3062H71.127H80.8078L81.1172 70.9839C81.5426 70.5714 81.5426 69.9784 81.1172 69.5659L80.8078 69.2437H71.127H61.4461L61.1367 69.5659Z" fill="#0E6B81"/>
<path d="M50.8242 75.7534C50.618 75.9468 50.502 76.2175 50.502 76.4624C50.502 76.7073 50.618 76.978 50.8242 77.1714L51.1336 77.4937H62.3613H73.5891L73.8984 77.1714C74.1047 76.978 74.2207 76.7073 74.2207 76.4624C74.2207 76.2175 74.1047 75.9468 73.8984 75.7534L73.5891 75.4312H62.3613H51.1336L50.8242 75.7534Z" fill="#0E6B81"/>
<path d="M76.6055 75.7534C76.3992 75.9468 76.2832 76.2175 76.2832 76.4624C76.2832 76.7073 76.3992 76.978 76.6055 77.1714C76.902 77.4808 76.9664 77.4937 78.8613 77.4937C80.7562 77.4937 80.8207 77.4808 81.1172 77.1714C81.3234 76.978 81.4395 76.7073 81.4395 76.4624C81.4395 76.2175 81.3234 75.9468 81.1172 75.7534C80.8207 75.444 80.7562 75.4312 78.8613 75.4312C76.9664 75.4312 76.902 75.444 76.6055 75.7534Z" fill="#0E6B81"/>
<path d="M73.7695 80.7422C73.4215 80.8066 72.6609 81.0902 72.0809 81.3609C69.5801 82.5727 68.0332 85.1121 68.0332 88.0254C68.0332 88.6699 67.9945 88.8375 67.8398 88.8375C67.7238 88.8375 67.4918 88.9793 67.3242 89.1598L67.002 89.4691V95.5406V101.612L67.3242 101.921L67.6336 102.244H75.252H82.8703L83.1797 101.921L83.502 101.612V95.5406V89.4691L83.1797 89.1598C83.0121 88.9793 82.7801 88.8375 82.6641 88.8375C82.5094 88.8375 82.4707 88.6699 82.4707 88.0254C82.4707 85.1121 80.9238 82.5727 78.4359 81.3738C76.8891 80.6262 75.4195 80.4328 73.7695 80.7422ZM77.366 83.1398C78.5262 83.6813 79.2867 84.4289 79.841 85.5633C80.2406 86.3754 80.318 86.659 80.3824 87.6645L80.4469 88.8375H79.3898H78.3457V88.1156C78.3457 87.0715 78.1137 86.4527 77.482 85.7438C76.2574 84.3773 74.4398 84.3516 73.125 85.6793C72.3902 86.4012 72.1582 86.9941 72.1582 88.1156V88.8375H71.1141H70.057L70.1215 87.6902C70.2375 85.7309 71.1914 84.1711 72.7898 83.3203C73.7953 82.7789 74.3625 82.65 75.5355 82.7016C76.3219 82.7402 76.7215 82.8434 77.366 83.1398ZM75.9609 87.0973C76.2316 87.3551 76.2832 87.5355 76.2832 88.1285V88.8375H75.252H74.2207V88.1285C74.2207 87.2648 74.5945 86.775 75.252 86.775C75.4969 86.775 75.7676 86.891 75.9609 87.0973ZM81.4395 95.5406V100.181H75.252H69.0645V95.5406V90.9H75.252H81.4395V95.5406Z" fill="#357676"/>
<path d="M50.8242 81.9409C50.618 82.1343 50.502 82.405 50.502 82.6499C50.502 82.8948 50.618 83.1655 50.8242 83.3589L51.1336 83.6812H58.752H66.3703L66.6797 83.3589C66.8859 83.1655 67.002 82.8948 67.002 82.6499C67.002 82.405 66.8859 82.1343 66.6797 81.9409L66.3703 81.6187H58.752H51.1336L50.8242 81.9409Z" fill="#0E6B81"/>
<path d="M50.8242 88.1284C50.618 88.3218 50.502 88.5925 50.502 88.8374C50.502 89.0823 50.618 89.353 50.8242 89.5464C51.1336 89.8687 51.1594 89.8687 53.5957 89.8687C56.032 89.8687 56.0578 89.8687 56.3672 89.5464C56.5734 89.353 56.6895 89.0823 56.6895 88.8374C56.6895 88.5925 56.5734 88.3218 56.3672 88.1284C56.0578 87.8062 56.032 87.8062 53.5957 87.8062C51.1594 87.8062 51.1336 87.8062 50.8242 88.1284Z" fill="#0E6B81"/>
<path d="M59.0742 88.1284C58.868 88.3218 58.752 88.5925 58.752 88.8374C58.752 89.0823 58.868 89.353 59.0742 89.5464C59.3836 89.8687 59.4094 89.8687 61.8457 89.8687C64.282 89.8687 64.3078 89.8687 64.6172 89.5464C64.8234 89.353 64.9395 89.0823 64.9395 88.8374C64.9395 88.5925 64.8234 88.3218 64.6172 88.1284C64.3078 87.8062 64.282 87.8062 61.8457 87.8062C59.4094 87.8062 59.3836 87.8062 59.0742 88.1284Z" fill="#0E6B81"/>
<path d="M50.8242 94.3159C50.618 94.5093 50.502 94.78 50.502 95.0249C50.502 95.2698 50.618 95.5405 50.8242 95.7339L51.1336 96.0562H56.6895H62.2453L62.5547 95.7339C62.7609 95.5405 62.877 95.2698 62.877 95.0249C62.877 94.78 62.7609 94.5093 62.5547 94.3159L62.2453 93.9937H56.6895H51.1336L50.8242 94.3159Z" fill="#0E6B81"/>
</g>
<defs>
<clipPath id="clip0_113_122">
<rect width="129" height="160" fill="white"/>
</clipPath>
</defs>
</svg>
