<svg width="129" height="160" viewBox="0 0 129 160" fill="none" xmlns="http://www.w3.org/2000/svg">
<path d="M0 23L0 137C0 149.703 10.2975 160 23 160H106C118.703 160 129 149.703 129 137V23C129 10.2975 118.703 0 106 0H23C10.2975 0 0 10.2975 0 23Z" fill="#0E6B81"/>
<path d="M41.0816 67.5366C41.0979 67.6284 41.1112 67.7203 41.1166 67.8129C41.186 69.0017 42.0847 78.4866 53.3835 90.0353C53.3835 90.0353 63.1436 99.9818 73.4159 102.073C73.4603 102.082 73.504 102.092 73.5484 102.104C74.1704 102.274 79.4581 103.61 82.1838 100.877L86.067 97.063C86.1021 97.0286 86.1387 96.9949 86.1761 96.9627C86.5635 96.6298 89.2604 94.1382 86.5627 91.4889C83.8324 88.8074 80.3903 85.5381 80.0006 85.1676C79.9819 85.15 79.964 85.1324 79.9461 85.1141C79.7348 84.8982 77.7285 82.957 75.3785 84.7306C75.3107 84.7818 75.2468 84.8393 75.186 84.899L71.3839 88.6429C70.532 89.4504 69.1789 89.4397 68.3394 88.6191L55.35 75.9116C54.4778 75.0581 54.5004 73.6642 55.3999 72.8382L58.4397 70.0489C58.4397 70.0489 61.7703 67.0207 58.1934 63.7498L52.8839 58.5354C52.8511 58.5033 52.8199 58.4704 52.7888 58.4359C52.4458 58.0563 49.9009 55.4567 46.9149 58.3502C46.8237 58.4382 46.7247 58.5178 46.6195 58.5883C45.6062 59.2711 40.2811 63.0862 41.0816 67.5366Z" fill="#FAAF40"/>
<path d="M76.8682 76.8257C77.6906 76.8252 78.3677 76.155 78.2513 75.3409C78.1075 74.3356 77.8185 73.3539 77.3912 72.427C76.7554 71.0479 75.8286 69.8229 74.6745 68.8361C73.5203 67.8492 72.1661 67.124 70.7051 66.7103C69.723 66.4322 68.7083 66.2992 67.6929 66.3133C66.8706 66.3248 66.3137 67.0978 66.441 67.9103C66.5684 68.7227 67.3342 69.2625 68.1559 69.297C68.7423 69.3217 69.3256 69.4148 69.8936 69.5757C70.941 69.8723 71.9117 70.3922 72.7391 71.0996C73.5665 71.807 74.2309 72.6852 74.6866 73.6738C74.9338 74.2099 75.1164 74.7716 75.2319 75.3471C75.3936 76.1534 76.0458 76.8261 76.8682 76.8257Z" fill="#E99B3F"/>
<path d="M83.0213 76.9949C84.0118 77.0724 84.8886 76.3304 84.8516 75.3375C84.7842 73.5316 84.4032 71.7464 83.7212 70.063C82.8133 67.8223 81.3969 65.8233 79.5837 64.2241C77.7706 62.6248 75.6104 61.469 73.2738 60.8481C71.5185 60.3816 69.6997 60.2265 67.8995 60.3852C66.9097 60.4724 66.283 61.435 66.4837 62.4081C66.6843 63.3812 67.6373 63.9931 68.6295 63.9401C69.8784 63.8735 71.1338 64.0024 72.3497 64.3255C74.1471 64.8032 75.8088 65.6923 77.2036 66.9225C78.5984 68.1527 79.688 69.6904 80.3864 71.4142C80.8588 72.5801 81.1435 73.8096 81.2333 75.0571C81.3046 76.0481 82.0307 76.9173 83.0213 76.9949Z" fill="#E99B3F"/>
</svg>
