<svg width="129" height="161" viewBox="0 0 129 161" fill="none" xmlns="http://www.w3.org/2000/svg">
<g clip-path="url(#clip0_113_95)">
<path d="M0 23.0249L0 137.025C0 149.727 10.2975 160.025 23 160.025H106C118.703 160.025 129 149.727 129 137.025V23.0249C129 10.3224 118.703 0.0249023 106 0.0249023H23C10.2975 0.0249023 0 10.3224 0 23.0249Z" fill="#FAAF40"/>
<path d="M64.6504 81.7226C71.5313 81.7226 77.1093 76.1446 77.1093 69.2637C77.1093 62.3828 71.5313 56.8047 64.6504 56.8047C57.7695 56.8047 52.1914 62.3828 52.1914 69.2637C52.1914 76.1446 57.7695 81.7226 64.6504 81.7226Z" fill="#5E9CAB"/>
<path d="M85.8702 69.3562C85.8702 71.4469 81.7649 72.8565 81.1527 74.7414C80.5195 76.6948 82.9891 80.248 81.8071 81.8741C80.6145 83.5161 76.4617 82.2595 74.8206 83.4527C73.1953 84.6354 73.1162 88.9805 71.1637 89.614C69.2799 90.2265 66.6732 86.7789 64.5835 86.7789C62.4939 86.7789 59.8872 90.2265 58.0034 89.614C56.0509 88.9805 55.9718 84.6354 54.3465 83.4527C52.7054 82.2595 48.5526 83.5161 47.36 81.8741C46.178 80.248 48.6476 76.6948 48.0143 74.7414C47.4022 72.8565 43.2969 71.4416 43.2969 69.3562C43.2969 67.2707 47.4022 65.8558 48.0143 63.971C48.6476 62.0175 46.178 58.4643 47.36 56.8382C48.5526 55.1962 52.7054 56.4528 54.3465 55.2596C55.9718 54.077 56.0509 49.7318 58.0034 49.0983C59.8872 48.4859 62.4939 51.9334 64.5835 51.9334C66.6732 51.9334 69.2799 48.4859 71.1637 49.0983C73.1162 49.7318 73.1953 54.077 74.8206 55.2596C76.4617 56.4528 80.6145 55.1962 81.8071 56.8382C82.9891 58.4643 80.5195 62.0175 81.1527 63.971C81.7596 65.8505 85.8702 67.2654 85.8702 69.3562Z" stroke="#0E6B81" stroke-width="2.5" stroke-miterlimit="10"/>
<path d="M64.25 90.506L73.1731 110.901C73.7694 112.263 75.6163 112.416 76.0753 111.144L77.5476 106.25C77.8325 105.453 78.7507 105.141 79.5739 105.563L84.381 108.282C85.695 108.953 86.9403 107.765 86.3493 106.408L75.9804 82.708" stroke="#0E6B81" stroke-width="2.5" stroke-miterlimit="10"/>
<path d="M65.7384 87.1059L55.3272 110.901C54.731 112.263 52.8841 112.416 52.425 111.144L50.9528 106.25C50.6678 105.453 49.7497 105.141 48.9265 105.563L44.1193 108.282C42.8054 108.953 41.56 107.765 42.151 106.408L52.5253 82.708" stroke="#0E6B81" stroke-width="2.5" stroke-miterlimit="10"/>
</g>
<defs>
<clipPath id="clip0_113_95">
<rect width="129" height="161" fill="white"/>
</clipPath>
</defs>
</svg>
