<svg width="129" height="160" viewBox="0 0 129 160" fill="none" xmlns="http://www.w3.org/2000/svg">
<path d="M0 23L0 137C0 149.703 10.2975 160 23 160H106C118.703 160 129 149.703 129 137V23C129 10.2975 118.703 0 106 0H23C10.2975 0 0 10.2975 0 23Z" fill="#FAAF40"/>
<path d="M60.3037 54.3009C54.8917 60.9009 54.4297 61.5609 54.4297 62.3199C54.4297 63.7719 55.8487 64.4649 58.7527 64.4649H61.3597V70.3059V76.1799L62.6797 77.2689L63.9997 78.3579L65.3197 77.2689L66.6397 76.1799V70.3059V64.4649H69.2467C72.1507 64.4649 73.5697 63.7719 73.5697 62.3199C73.5697 61.8249 72.0517 59.6799 69.3787 56.3139C63.9007 49.5489 64.1317 49.5819 60.3037 54.3009Z" fill="#0E6B81"/>
<path d="M38.5899 73.8699C35.9499 75.9819 33.5409 77.995 33.2439 78.391C31.9569 79.843 32.3199 80.3709 37.9629 84.9249C43.5069 89.4129 44.2659 89.809 45.5199 88.555C46.0809 87.994 46.1799 87.466 46.1799 85.057V82.186L48.4239 82.3839C53.9679 82.8459 58.2909 86.1129 60.5349 91.5249C61.0629 92.7789 61.1949 94.2309 61.3269 100.369C61.5249 107.629 61.5249 107.761 62.3169 108.388C63.4059 109.279 64.8579 109.18 65.8479 108.19L66.7059 107.332L66.5739 99.841C66.4419 92.779 66.3759 92.218 65.5839 90.139C63.7029 85.123 60.3369 81.2949 55.9479 79.1499C53.4729 77.9289 49.9089 77.005 47.5989 77.005H46.1799V74.365C46.1799 71.956 46.0809 71.6259 45.3549 70.8999C44.9259 70.4379 44.2989 70.075 43.9689 70.075C43.6389 70.075 41.2299 71.7909 38.5899 73.8699Z" fill="#0E6B81"/>
<path d="M82.6448 70.9C81.9188 71.626 81.8198 71.956 81.8198 74.365V77.005H80.4338C76.7708 77.038 71.2928 78.985 68.6198 81.229L67.4648 82.219L68.2238 83.473C68.6528 84.199 69.2138 85.222 69.4778 85.816L69.9398 86.872L72.0848 85.255C74.4938 83.44 77.6288 82.285 80.2028 82.285H81.8198V84.925C81.8198 87.334 81.9188 87.664 82.6448 88.39C83.0738 88.852 83.7008 89.215 84.0308 89.215C84.6908 89.215 94.2608 81.724 94.9868 80.635C95.8448 79.381 95.1848 78.523 90.3008 74.629C83.9978 69.547 83.9648 69.547 82.6448 70.9Z" fill="#0E6B81"/>
</svg>
