<svg width="129" height="160" viewBox="0 0 129 160" fill="none" xmlns="http://www.w3.org/2000/svg">
<path d="M0 23L0 137C0 149.703 10.2975 160 23 160H106C118.703 160 129 149.703 129 137V23C129 10.2975 118.703 0 106 0H23C10.2975 0 0 10.2975 0 23Z" fill="#FAAF40"/>
<path d="M89.1213 69.3274C89.1213 54.739 76.9173 43.0317 62.27 44.0639C49.969 44.9263 39.9822 54.9611 39.0708 67.3936C38.2693 78.3431 44.3518 87.9467 53.4014 92.252C54.7588 92.8988 55.625 94.2773 55.625 95.793V101.797V106.331C55.625 110.708 58.7988 114.549 63.1038 115.033C68.191 115.601 72.5024 111.59 72.5024 106.559V95.793C72.5024 94.2773 73.3751 92.8988 74.7325 92.252C83.2326 88.195 89.1213 79.4602 89.1213 69.3274Z" stroke="#0E6B81" stroke-width="2.5" stroke-miterlimit="10"/>
<path d="M72.4966 101.451H55.6191" stroke="#0E6B81" stroke-width="2.5" stroke-miterlimit="10"/>
<path d="M64.061 70.9536C59.1549 70.9536 55.1602 74.9911 55.1602 79.9497V85.1892C57.7651 86.7572 60.8097 87.6653 64.061 87.6653C67.3124 87.6653 70.3569 86.7637 72.9619 85.1892V79.9497C72.9619 74.9911 68.9672 70.9536 64.061 70.9536Z" fill="#87B5C0"/>
<path d="M50.7705 79.9501C50.7705 72.5416 56.7303 66.518 64.0604 66.518C71.3906 66.518 77.3503 72.5416 77.3503 79.9501V81.4331C79.923 78.3625 81.4743 74.397 81.4743 70.0655C81.4743 60.3443 73.6788 52.4653 64.0604 52.4653C54.442 52.4653 46.6465 60.3443 46.6465 70.0655C46.6465 74.4035 48.1978 78.3691 50.7705 81.4331V79.9501Z" fill="#87B5C0"/>
</svg>
