<svg width="23" height="18" viewBox="0 0 23 18" fill="none" xmlns="http://www.w3.org/2000/svg">
<path d="M19.5975 16.1288C17.9094 17.3675 16.0631 18 14.0321 18C13.1617 18 12.3968 17.8946 11.7374 17.6837L0 14.5739C1.42431 14.9165 2.74312 13.7833 3.95642 11.1479C4.61582 9.72474 5.14336 8.0117 5.56538 6.03513C5.98739 4.05856 6.91056 2.55637 8.38763 1.52855C9.86469 0.500729 11.8693 0 14.4014 0C16.6961 0 18.7007 1.02781 20.4151 3.0571C22.156 5.08638 23 7.27379 23 9.61933C23 10.2255 22.9209 10.8316 22.7626 11.4378C22.3406 13.3353 21.2592 14.8902 19.5975 16.1288Z" fill="#0E6B81"/>
</svg>
