<svg width="213" height="224" viewBox="0 0 213 224" fill="none" xmlns="http://www.w3.org/2000/svg"><g id="contact 1" clip-path="url(#clip0_88_299)"><g id="Group 486"><g id="Clip path group"><mask id="mask0_88_299" style="mask-type:luminance" maskUnits="userSpaceOnUse" x="0" y="0" width="213" height="224"><g id="clip-path"><path id="Rectangle 172" d="M212.393 0H0V224H212.393V0Z" fill="white"/></g></mask><g mask="url(#mask0_88_299)"><g id="Group 486_2"><path id="Path 7540" d="M202.095 99.5382C201.981 99.5381 201.872 99.4969 201.786 99.4223C201.7 99.3477 201.645 99.2447 201.629 99.1322C201.182 96.1913 199.996 93.4118 198.183 91.0539C196.369 88.6961 193.987 86.8368 191.259 85.6502C189.271 84.8835 187.219 84.2922 185.128 83.8832C181.882 83.1482 178.528 82.3892 175.828 80.3152C172.42 77.6952 170.735 73.4152 169.648 69.9842C169.417 69.2542 169.196 68.5172 168.975 67.7842C168.21 64.7019 167.013 61.7432 165.42 58.9962C162.541 54.5612 157.878 52.0872 154.472 50.7962C150.015 49.2827 145.411 48.2407 140.736 47.6872C140.612 47.6683 140.501 47.601 140.427 47.5002C140.353 47.3994 140.322 47.2733 140.341 47.1497C140.36 47.0261 140.428 46.9151 140.528 46.8411C140.629 46.7672 140.755 46.7362 140.879 46.7552C145.619 47.3166 150.287 48.3755 154.806 49.9142C158.343 51.2582 163.192 53.8372 166.206 58.4852C167.851 61.3061 169.086 64.347 169.874 67.5162C170.093 68.2492 170.313 68.9812 170.542 69.7062C171.588 73.0062 173.198 77.1132 176.398 79.5742C178.931 81.5212 182.04 82.2252 185.331 82.9742C187.477 83.3943 189.582 84.0027 191.621 84.7922C194.498 86.0434 197.011 88.0042 198.923 90.4911C200.836 92.9779 202.087 95.9094 202.558 99.0112C202.567 99.0725 202.563 99.1349 202.548 99.1948C202.533 99.2548 202.506 99.3111 202.468 99.3606C202.431 99.4101 202.385 99.4518 202.331 99.4833C202.278 99.5148 202.219 99.5355 202.158 99.5442C202.136 99.5457 202.114 99.5457 202.092 99.5442" fill="#2A2A2A"/><path id="Path 7541" d="M110.904 70.7651C110.788 70.765 110.676 70.7223 110.59 70.645C110.504 70.5677 110.449 70.4612 110.436 70.3461C110.379 69.8391 109.129 57.8461 115.829 50.5611C119.229 46.8611 124.077 45.0831 130.229 45.2431C130.354 45.2467 130.472 45.2997 130.558 45.3904C130.644 45.4812 130.69 45.6022 130.687 45.7271C130.686 45.7892 130.673 45.8506 130.648 45.9075C130.623 45.9645 130.587 46.0158 130.542 46.0585C130.497 46.1012 130.444 46.1344 130.385 46.1562C130.327 46.1779 130.265 46.1878 130.203 46.1851C124.331 46.0241 119.733 47.7101 116.528 51.1951C110.118 58.1621 111.361 70.1211 111.375 70.2421C111.389 70.3664 111.353 70.4912 111.274 70.5889C111.196 70.6866 111.082 70.7492 110.958 70.7631H110.906" fill="#FDD301"/><path id="Path 7542" d="M123.117 75.1151C121.846 81.2091 117.117 85.2651 112.547 84.1741C107.977 83.0831 105.308 77.2581 106.58 71.1641C107.852 65.0701 112.58 61.0141 117.15 62.1051C121.72 63.1961 124.388 69.0211 123.117 75.1151Z" fill="#FDD301"/><path id="Path 7543" d="M194.226 127.989C191.913 131.128 184.7 136.189 176.889 129.646C169.953 126.556 182.065 114.063 152.989 108.638L187.114 88.4111C194.175 91.4851 199.074 98.6441 200.166 106.269C201.258 113.894 198.798 121.798 194.224 127.989" fill="#2A2A2A"/><path id="Path 7544" d="M117.279 54.5341C116.566 55.3329 116.027 56.2718 115.697 57.2906C115.368 58.3094 115.254 59.3858 115.364 60.451C115.688 64.182 116.039 71.7281 113.037 74.7511C110.035 77.7741 106.844 74.6801 102.886 81.2261C98.928 87.7721 104.059 92.5761 101.947 96.9671C99.8349 101.358 88.0629 106.577 87.8979 114.26C87.7329 121.943 94.0519 128.012 105.174 126.948C116.296 125.884 135.044 105.948 135.044 105.948L127.57 69.8611L121.163 54.2791L117.279 54.5341Z" fill="#2A2A2A"/><path id="Path 7545" d="M124.116 104.452L117.741 103.744C113.301 103.249 108.81 103.966 104.745 105.819C100.681 107.673 97.1942 110.593 94.657 114.27C84.479 129.036 71.485 146.165 61.516 148.128C43.675 151.641 18.173 124.949 18.173 124.949L2.01495 143.987C2.01495 143.987 41.847 188.996 75.424 181.395C96.456 176.634 120.17 128.884 120.17 128.884" fill="#FDD301"/><path id="Path 7546" d="M7.73298 119.434C4.16175 122.554 1.66097 126.716 0.58398 131.334C-1.02702 137.852 0.176978 147.597 10.851 149.76C20.735 151.76 28.54 144.334 28.651 136.448C28.762 128.562 7.73397 119.431 7.73397 119.431" fill="#2A2A2A"/><path id="Path 7547" d="M187.177 134.297C184.93 165.482 180.311 208.213 180.311 208.213C157.755 226.713 96.596 221.981 96.024 197.069C95.534 175.884 106.812 113.569 106.812 113.569C106.973 112.081 107.433 110.64 108.164 109.334C108.895 108.028 109.883 106.883 111.068 105.968C112.252 105.053 113.609 104.386 115.058 104.008C116.506 103.631 118.016 103.549 119.497 103.769L155.532 109.156L168.789 111.213C174.193 112.05 179.083 114.889 182.49 119.167C185.896 123.444 187.569 128.846 187.175 134.3" fill="#FDD301"/><path id="Path 7548" d="M96.022 197.542C95.8991 197.542 95.7811 197.494 95.6931 197.408C95.6051 197.323 95.5541 197.206 95.551 197.083C95.014 176.089 106.234 114.104 106.351 113.483C106.373 113.36 106.443 113.251 106.546 113.18C106.649 113.109 106.776 113.081 106.898 113.104C107.021 113.126 107.13 113.196 107.202 113.299C107.273 113.401 107.3 113.528 107.278 113.651C107.165 114.274 95.962 176.163 96.497 197.061C96.4986 197.123 96.488 197.185 96.4658 197.242C96.4436 197.3 96.4102 197.353 96.3676 197.398C96.3249 197.443 96.2739 197.479 96.2173 197.504C96.1608 197.529 96.0998 197.543 96.038 197.544L96.022 197.542Z" fill="black"/><path id="Path 7549" d="M152.991 108.637C152.991 108.637 149.901 93.8861 153.339 83.3541L131.318 89.3962L130.994 106.696C134.612 107.711 141.204 113.016 152.994 108.641" fill="white"/><path id="Path 7550" d="M144.123 110.826C140.367 110.741 136.677 109.819 133.323 108.126C132.526 107.746 131.704 107.419 130.864 107.146C130.764 107.118 130.675 107.057 130.613 106.974C130.551 106.89 130.518 106.788 130.52 106.684L130.844 89.3841C130.846 89.2823 130.881 89.1838 130.943 89.1034C131.006 89.023 131.093 88.965 131.191 88.9381L153.212 82.8971C153.294 82.8749 153.38 82.8751 153.462 82.8979C153.544 82.9207 153.618 82.9652 153.677 83.0266C153.736 83.0881 153.777 83.1642 153.796 83.247C153.815 83.3298 153.811 83.4162 153.785 83.4971C150.425 93.7891 153.42 108.39 153.45 108.536C153.473 108.647 153.456 108.763 153.401 108.862C153.346 108.961 153.257 109.037 153.15 109.075C150.268 110.194 147.209 110.786 144.118 110.823M131.467 106.342C132.13 106.561 132.867 106.889 133.704 107.26C137.573 108.978 143.394 111.56 152.446 108.328C152 105.947 149.891 93.5021 152.631 84.0281L131.777 89.7491L131.467 106.342Z" fill="black"/><path id="Path 7551" d="M136.485 98.662C131.629 100.062 126.439 100.124 122.119 96.843C104.358 83.354 124.719 52.52 124.719 52.52L146.427 59.685C146.427 59.685 156.213 70.701 156.458 70.363C156.703 70.025 152.478 89.616 152.478 89.616" fill="white"/><path id="Path 7552" d="M130.539 100.047C127.404 100.104 124.341 99.1081 121.839 97.2181C114.406 91.5731 112.495 81.9841 116.313 69.4861C118.25 63.4302 120.944 57.6429 124.33 52.2611C124.387 52.1748 124.471 52.1097 124.569 52.0757C124.666 52.0417 124.773 52.0408 124.871 52.0731L146.579 59.2382C146.656 59.2647 146.725 59.3109 146.779 59.3722C150.133 63.1482 155.644 69.2221 156.549 69.8951C156.586 69.9018 156.622 69.9129 156.657 69.9282C157.057 70.1062 157.057 70.1061 156.368 73.4901C156.001 75.3001 155.498 77.7061 154.99 80.1101C153.974 84.9171 152.939 89.7101 152.939 89.7101C152.926 89.7706 152.901 89.8279 152.866 89.8787C152.83 89.9296 152.785 89.973 152.733 90.0065C152.681 90.04 152.623 90.0628 152.562 90.0738C152.501 90.0849 152.439 90.0838 152.378 90.0706C152.318 90.0575 152.261 90.0326 152.21 89.9973C152.159 89.9621 152.116 89.9171 152.082 89.865C152.049 89.813 152.026 89.7549 152.015 89.694C152.004 89.6331 152.005 89.5706 152.018 89.5102C153.506 82.6102 155.69 72.3252 155.969 70.5872C155.169 69.9572 152.969 67.7512 146.16 60.0872L124.921 53.0771C122.897 56.2931 106.128 84.0992 122.406 96.4622C126.061 99.2372 130.754 99.8232 136.356 98.2042C136.415 98.187 136.478 98.1816 136.539 98.1885C136.601 98.1954 136.66 98.2143 136.715 98.2442C136.769 98.2741 136.817 98.3144 136.855 98.3628C136.894 98.4111 136.923 98.4667 136.94 98.5261C136.957 98.5856 136.962 98.6479 136.956 98.7095C136.949 98.771 136.93 98.8306 136.9 98.8848C136.87 98.9391 136.83 98.9869 136.781 99.0255C136.733 99.0642 136.677 99.0929 136.618 99.1101C134.646 99.7045 132.6 100.018 130.541 100.042" fill="black"/><path id="Path 7553" d="M119.511 72.1821C120.158 71.8712 120.888 71.7739 121.594 71.9041C122.273 72.0316 122.886 72.3907 123.329 72.9201" fill="white"/><path id="Path 7554" d="M123.331 73.3871C123.261 73.3873 123.192 73.3719 123.129 73.3419C123.066 73.312 123.01 73.2683 122.966 73.2141C122.594 72.7688 122.078 72.4675 121.507 72.3621C120.899 72.2527 120.273 72.337 119.716 72.6031C119.66 72.6299 119.6 72.6454 119.538 72.6488C119.476 72.6522 119.414 72.6434 119.356 72.6229C119.297 72.6024 119.244 72.5705 119.197 72.5292C119.151 72.4879 119.114 72.4379 119.087 72.3821C119.06 72.3263 119.045 72.2658 119.041 72.2039C119.038 72.1421 119.047 72.0803 119.067 72.0219C119.088 71.9634 119.12 71.9096 119.161 71.8635C119.202 71.8174 119.252 71.7799 119.308 71.7531C120.046 71.3967 120.879 71.286 121.685 71.4371C122.472 71.5841 123.183 72.0019 123.694 72.6181C123.751 72.6871 123.787 72.7707 123.798 72.8593C123.808 72.9479 123.794 73.0377 123.756 73.1184C123.718 73.1991 123.657 73.2673 123.582 73.315C123.507 73.3628 123.419 73.3881 123.33 73.3881" fill="black"/><path id="Path 7555" d="M122.013 75.9512C121.842 77.0192 121.099 77.7882 120.354 77.6692C119.609 77.5502 119.144 76.5872 119.314 75.5192C119.484 74.4512 120.228 73.6822 120.973 73.8012C121.718 73.9202 122.185 74.8832 122.013 75.9512Z" fill="black"/><path id="Path 7556" d="M131.744 74.5261C132.391 74.2153 133.121 74.1179 133.827 74.2481C134.506 74.3756 135.119 74.7347 135.562 75.2641" fill="white"/><path id="Path 7557" d="M135.562 75.7352C135.492 75.7353 135.423 75.7198 135.36 75.6899C135.297 75.66 135.241 75.6163 135.197 75.5621C134.823 75.1191 134.308 74.8183 133.738 74.7102C133.131 74.6005 132.505 74.6849 131.948 74.9512C131.892 74.978 131.832 74.9935 131.77 74.9969C131.708 75.0003 131.646 74.9915 131.588 74.971C131.529 74.9504 131.476 74.9186 131.429 74.8773C131.383 74.836 131.346 74.786 131.319 74.7302C131.292 74.6744 131.277 74.6138 131.273 74.552C131.27 74.4902 131.279 74.4283 131.299 74.3699C131.32 74.3115 131.352 74.2577 131.393 74.2116C131.434 74.1655 131.484 74.1279 131.54 74.1011C132.278 73.7446 133.111 73.6339 133.917 73.7852C134.704 73.9325 135.415 74.3503 135.927 74.9662C135.984 75.0352 136.02 75.1189 136.03 75.2076C136.041 75.2963 136.027 75.3862 135.989 75.4669C135.95 75.5477 135.89 75.6158 135.814 75.6635C135.739 75.7112 135.651 75.7354 135.562 75.7352Z" fill="black"/><path id="Path 7558" d="M134.246 78.2971C134.075 79.3651 133.332 80.1341 132.587 80.0151C131.842 79.8961 131.377 78.9332 131.548 77.8652C131.719 76.7972 132.462 76.0282 133.207 76.1472C133.952 76.2662 134.418 77.2291 134.246 78.2971Z" fill="black"/><path id="Path 7559" d="M128.396 91.7401C129.18 92.0607 130.059 92.0607 130.843 91.7401C131.945 91.341 132.91 90.6362 133.626 89.7081C134.342 88.7801 134.778 87.6673 134.884 86.5001" fill="white"/><path id="Path 7560" d="M129.508 92.4532C129.051 92.4592 128.6 92.36 128.188 92.1631C128.132 92.1359 128.083 92.098 128.042 92.0516C128.001 92.0051 127.97 91.9511 127.95 91.8925C127.93 91.834 127.921 91.7721 127.925 91.7103C127.929 91.6486 127.945 91.5882 127.972 91.5327C128 91.4771 128.038 91.4275 128.084 91.3866C128.131 91.3457 128.184 91.3143 128.243 91.2943C128.302 91.2743 128.364 91.266 128.425 91.27C128.487 91.2739 128.547 91.2899 128.603 91.3171C129.275 91.5781 130.023 91.5695 130.689 91.2931C131.704 90.9245 132.593 90.2745 133.253 89.4192C133.912 88.564 134.315 87.5386 134.413 86.4631C134.422 86.3385 134.481 86.2227 134.576 86.1412C134.67 86.0597 134.794 86.0193 134.918 86.0287C135.043 86.0381 135.159 86.0966 135.24 86.1914C135.322 86.2862 135.362 86.4095 135.353 86.5342C135.238 87.7923 134.767 88.9917 133.995 89.9922C133.224 90.9927 132.183 91.7529 130.996 92.1841C130.518 92.3546 130.015 92.4455 129.508 92.4532Z" fill="black"/><path id="Path 7561" d="M126.777 75.4021C127.129 76.446 127.068 77.585 126.606 78.5851C126.143 79.5728 125.549 80.4929 124.838 81.3201C124.145 82.0447 123.666 82.946 123.452 83.9251C123.397 84.5867 123.583 85.2458 123.977 85.7803C124.371 86.3149 124.945 86.6885 125.593 86.8321" fill="white"/><path id="Path 7562" d="M125.591 87.303C125.562 87.303 125.533 87.3004 125.504 87.295C124.738 87.131 124.058 86.6922 123.593 86.0614C123.128 85.4306 122.911 84.6514 122.981 83.871C123.201 82.8035 123.715 81.8189 124.465 81.028C125.149 80.2349 125.721 79.3516 126.165 78.403C126.583 77.5168 126.643 76.5032 126.332 75.574C126.293 75.4587 126.299 75.3327 126.351 75.2223C126.402 75.1118 126.494 75.0255 126.607 74.9813C126.721 74.9372 126.847 74.9386 126.96 74.9853C127.072 75.0321 127.162 75.1204 127.211 75.232C127.612 76.3889 127.549 77.6563 127.036 78.768C126.56 79.7971 125.943 80.7549 125.203 81.614C124.569 82.2728 124.124 83.0906 123.916 83.981C123.873 84.5244 124.028 85.065 124.351 85.5039C124.674 85.9428 125.144 86.2506 125.676 86.371C125.792 86.3925 125.895 86.4565 125.965 86.5502C126.036 86.644 126.069 86.7607 126.058 86.8777C126.048 86.9946 125.993 87.1032 125.907 87.1823C125.82 87.2614 125.706 87.3051 125.589 87.305" fill="black"/><path id="Path 7563" d="M187.117 88.4101L152.992 108.637C152.28 102.57 150.906 97.3671 151.737 93.9371L151.667 80.6461C151.667 80.6461 150.706 81.3582 145.703 80.2172C140.7 79.0762 138.876 72.4341 139.05 69.9031C139.224 67.3721 137.491 66.8131 130.463 65.3131C128.09 64.8131 125.417 59.9961 119.063 64.9061C119.063 64.9061 115.929 64.9601 115.163 60.6061C114.441 56.5061 118.943 51.8991 121.876 49.7761C127.731 45.5291 136.258 45.0131 142.901 47.5821C147.952 49.575 152.516 52.6288 156.285 56.5372C160.054 60.4456 162.94 65.1175 164.748 70.2371C166.035 73.9901 166.817 78.1131 169.462 81.0671C173.762 85.8851 181.194 85.8361 187.114 88.4101" fill="#2A2A2A"/><path id="Path 7564" d="M155.286 36.1741C155.478 38.12 155.088 40.079 154.166 41.8034C153.244 43.5277 151.832 44.94 150.107 45.8616C148.383 46.7832 146.424 47.1728 144.478 46.9809C142.532 46.7891 140.687 46.0246 139.175 44.784C137.664 43.5434 136.554 41.8825 135.987 40.0113C135.42 38.1402 135.42 36.1428 135.988 34.2717C136.555 32.4007 137.665 30.74 139.177 29.4998C140.689 28.2596 142.534 27.4955 144.48 27.3041C147.089 27.0475 149.693 27.8378 151.72 29.5012C153.746 31.1647 155.029 33.5649 155.286 36.1741Z" fill="#2A2A2A"/><path id="Path 7565" d="M136.345 46.303C136.345 46.303 137.928 42.684 139.705 42.115C141.482 41.546 144.924 42.883 145.322 44.515C145.514 45.8064 145.419 47.1243 145.045 48.375C145.064 48.502 139.662 46.633 136.345 46.3" fill="#FDD301"/><path id="Path 7566" d="M146.072 80.7231C146.072 80.7231 149.754 72.139 154.972 76.498C160.19 80.857 157.556 87.7231 151.372 89.8041" fill="white"/><path id="Path 7567" d="M151.371 90.2762C151.259 90.2765 151.15 90.237 151.065 90.1646C150.979 90.0922 150.923 89.9917 150.905 89.8811C150.886 89.7706 150.908 89.6572 150.966 89.5613C151.024 89.4655 151.115 89.3934 151.221 89.3581C152.674 88.9391 153.99 88.1431 155.036 87.0508C156.082 85.9586 156.82 84.609 157.176 83.1391C157.379 81.963 157.252 80.7537 156.809 79.6454C156.366 78.537 155.625 77.5729 154.668 76.8601C154.229 76.4255 153.69 76.104 153.099 75.9232C152.508 75.7424 151.882 75.7077 151.275 75.8222C148.431 76.5012 146.524 80.8652 146.505 80.9092C146.456 81.024 146.363 81.1145 146.247 81.1609C146.131 81.2072 146.001 81.2055 145.886 81.1562C145.771 81.1068 145.681 81.0139 145.634 80.8978C145.588 80.7817 145.59 80.652 145.639 80.5371C145.723 80.3371 147.749 75.6962 151.054 74.9062C151.804 74.7531 152.58 74.7851 153.316 74.9994C154.051 75.2137 154.723 75.6039 155.273 76.1361C156.362 76.954 157.203 78.0577 157.702 79.3247C158.202 80.5917 158.34 81.9723 158.102 83.3131C157.716 84.9478 156.904 86.451 155.748 87.6697C154.592 88.8884 153.134 89.7791 151.522 90.2511C151.473 90.2677 151.422 90.2762 151.371 90.2762Z" fill="black"/><path id="Path 7568" d="M150.394 80.1331C150.929 80.2085 151.437 80.419 151.868 80.7448C152.3 81.0705 152.641 81.5008 152.86 81.9951C153.08 82.4893 153.169 83.0312 153.121 83.5697C153.073 84.1082 152.888 84.6256 152.585 85.0731" fill="white"/><path id="Path 7569" d="M152.585 85.5432C152.499 85.5433 152.415 85.52 152.342 85.4759C152.268 85.4318 152.208 85.3684 152.168 85.2927C152.128 85.217 152.109 85.1318 152.114 85.0462C152.119 84.9607 152.147 84.878 152.195 84.8071C152.454 84.4259 152.611 83.9852 152.652 83.5264C152.693 83.0676 152.616 82.6059 152.43 82.1849C152.243 81.7638 151.952 81.3973 151.584 81.1199C151.216 80.8424 150.784 80.6632 150.328 80.5991C150.267 80.5905 150.208 80.5698 150.155 80.5384C150.101 80.5069 150.055 80.4653 150.017 80.4158C149.98 80.3664 149.953 80.3101 149.938 80.2502C149.922 80.1903 149.919 80.1279 149.927 80.0667C149.936 80.0054 149.957 79.9464 149.988 79.8931C150.02 79.8399 150.061 79.7933 150.111 79.7561C150.16 79.7189 150.217 79.6918 150.276 79.6764C150.336 79.661 150.399 79.6575 150.46 79.6661C151.075 79.7526 151.657 79.9941 152.153 80.368C152.648 80.742 153.04 81.2359 153.292 81.8033C153.544 82.3707 153.647 82.9929 153.592 83.6112C153.536 84.2294 153.325 84.8234 152.976 85.3372C152.933 85.4009 152.874 85.4531 152.806 85.4892C152.738 85.5253 152.662 85.5431 152.585 85.5432Z" fill="black"/><path id="Path 7570" d="M131.409 102.212C131.409 102.212 126.445 104.798 126.257 104.77C126.069 104.742 130.67 118.114 130.67 118.114L138.991 109.701L131.409 102.212Z" fill="white"/><path id="Path 7571" d="M130.664 118.587C130.63 118.587 130.597 118.583 130.564 118.575C130.486 118.557 130.413 118.52 130.354 118.466C130.294 118.413 130.249 118.345 130.223 118.269C125.598 104.825 125.666 104.743 125.89 104.469C125.963 104.381 126.065 104.323 126.178 104.304C126.557 104.171 129.022 102.922 131.189 101.793C131.277 101.747 131.378 101.73 131.477 101.745C131.576 101.76 131.667 101.806 131.738 101.876L139.319 109.365C139.407 109.453 139.457 109.573 139.457 109.698C139.457 109.823 139.407 109.943 139.319 110.031L130.998 118.444C130.954 118.488 130.902 118.524 130.844 118.548C130.787 118.572 130.725 118.584 130.663 118.584M126.795 105.057C127.232 106.578 129.314 112.73 130.863 117.242L138.318 109.704L131.318 102.788C128.618 104.188 127.388 104.799 126.797 105.057" fill="black"/><path id="Path 7572" d="M138.985 109.7L152.298 104.615L156.112 108.983L144.112 122.083L138.985 109.7Z" fill="white"/><path id="Path 7573" d="M144.116 122.559C144.088 122.559 144.061 122.557 144.034 122.552C143.956 122.539 143.883 122.506 143.821 122.456C143.759 122.407 143.71 122.342 143.68 122.269L138.549 109.881C138.525 109.823 138.512 109.76 138.513 109.697C138.513 109.634 138.526 109.572 138.551 109.514C138.576 109.456 138.612 109.404 138.658 109.36C138.703 109.317 138.757 109.283 138.816 109.26L152.129 104.175C152.219 104.141 152.318 104.135 152.411 104.159C152.505 104.182 152.589 104.233 152.652 104.306L156.466 108.674C156.542 108.761 156.584 108.874 156.582 108.989C156.581 109.105 156.537 109.217 156.459 109.302L144.459 122.402C144.415 122.45 144.361 122.489 144.301 122.515C144.241 122.542 144.176 122.555 144.111 122.555M139.601 109.963L144.263 121.219L155.474 108.971L152.154 105.171L139.601 109.963Z" fill="black"/><path id="Path 7574" d="M161.237 80.955C161.237 87.18 157.437 92.117 152.737 91.981C148.037 91.845 144.237 86.689 144.237 80.464C144.237 74.239 148.037 69.302 152.737 69.438C157.437 69.574 161.237 74.73 161.237 80.955Z" fill="#FDD301"/><path id="Path 7575" d="M157.294 81.241C157.294 84.392 155.368 86.891 152.994 86.823C150.62 86.755 148.694 84.1441 148.694 80.9931C148.694 77.8421 150.62 75.343 152.994 75.411C155.368 75.479 157.294 78.09 157.294 81.241Z" fill="black"/><path id="Path 7576" d="M152.99 81.5931C152.87 81.5931 152.755 81.5474 152.667 81.4652C152.58 81.3831 152.527 81.2708 152.52 81.1511C152.499 80.8051 150.15 46.5251 130.206 46.1901C130.081 46.1891 129.961 46.1384 129.874 46.0492C129.786 45.96 129.737 45.8397 129.739 45.7146C129.74 45.5896 129.79 45.47 129.879 45.3824C129.969 45.2947 130.089 45.246 130.214 45.2471H130.221C138.865 45.3931 145.628 51.6671 149.778 63.3931C151.723 69.1208 152.96 75.0649 153.461 81.0931C153.469 81.218 153.426 81.3409 153.344 81.4346C153.261 81.5284 153.144 81.5854 153.019 81.5931H152.99Z" fill="#FDD301"/><g id="translate" style="transform-origin: center; transform-box: fill-box; animation: storm 4s linear infinite alternate;"><g id="Group 488"><g id="Group 487"><path id="Path 7577" d="M155.782 194.887C155.866 198.294 153.816 203.4 149.646 208.52C141.386 218.673 125.735 225.66 100.93 222.957C63.603 218.897 11.769 129.765 7.48096 113.74C4.16196 101.34 10.581 79.1671 19.046 66.5171C20.5618 64.1672 22.3669 62.017 24.419 60.1171C25.0671 59.537 25.7588 59.0075 26.488 58.5332C26.536 58.5002 26.58 58.4741 26.616 58.4521L26.737 58.3751L26.781 58.3491C43.752 48.0491 71.336 77.5021 76.188 90.4791C80.267 101.394 73.878 108.033 65.978 111.547C64.4576 112.146 62.8987 112.643 61.312 113.033C52.961 115.468 53.385 122.327 54.459 125.207C60.459 141.285 85.693 175.807 95.512 176.714C101.648 177.279 103.552 171.895 107.512 166.591C110.129 162.816 113.869 159.96 118.2 158.43C132.083 153.577 155.531 184.73 155.784 194.885" fill="white"/><path id="Path 7578" d="M155.532 197.348C154.454 201.475 152.439 205.298 149.645 208.52C141.385 218.673 125.734 225.66 100.929 222.957C63.602 218.897 11.768 129.765 7.47998 113.74C4.32898 101.97 9.94797 81.4052 17.765 68.5232C12.846 80.4512 10.118 94.6162 12.531 103.623C16.819 119.648 68.652 208.779 105.98 212.84C130.785 215.54 146.436 208.556 154.696 198.403C154.986 198.047 155.265 197.695 155.532 197.343" fill="#D4E8E8"/><path id="Path 7579" d="M111.099 224C107.684 223.994 104.272 223.802 100.878 223.425C80.589 221.218 57.354 194.847 41.435 173.113C23.321 148.384 9.18599 121.936 7.02499 113.862C3.61999 101.136 10.425 78.5622 18.653 66.2552C20.1909 63.8723 22.023 61.6928 24.106 59.7682C24.7719 59.1719 25.4827 58.6276 26.232 58.1402C26.269 58.1132 26.318 58.0842 26.36 58.0592L26.483 57.9812L26.527 57.9552C30.905 55.2972 36.207 55.0232 42.295 57.1352C56.907 62.2012 72.947 80.4732 76.629 90.3182C81.372 103.01 72.111 109.339 66.168 111.982C64.9936 112.471 63.7846 112.872 62.551 113.182C62.18 113.282 61.81 113.382 61.443 113.494C58.403 114.38 56.305 115.939 55.207 118.125C54.1965 120.303 54.0858 122.792 54.899 125.051C57.766 132.737 65.412 145.323 73.924 156.371C83.215 168.428 91.3 175.861 95.553 176.253C100.153 176.682 102.243 173.533 104.888 169.553C105.588 168.501 106.311 167.413 107.129 166.317C109.804 162.467 113.62 159.556 118.04 157.993C121.957 156.625 126.968 157.933 132.532 161.779C144.31 169.92 156.07 187.615 156.251 194.879C156.346 198.695 154.012 203.907 150.009 208.822C141.928 218.754 128.321 224.004 111.097 224.004M26.736 58.3772L26.982 58.7772L26.866 58.8512C26.817 58.8802 26.787 58.8982 26.756 58.9202C26.042 59.3847 25.3647 59.9032 24.73 60.4712C22.7072 62.3449 20.9286 64.4659 19.436 66.7842C11.316 78.9192 4.59499 101.14 7.93599 113.623C10.078 121.623 24.147 147.923 42.196 172.561C64.54 203.067 85.417 220.8 100.981 222.492C122.716 224.86 139.868 219.792 149.281 208.227C153.089 203.552 155.399 198.447 155.311 194.903C155.135 187.842 143.577 170.556 131.999 162.553C126.694 158.886 121.975 157.615 118.354 158.882C114.113 160.387 110.453 163.185 107.888 166.882C107.088 167.958 106.37 169.035 105.677 170.077C102.969 174.15 100.636 177.669 95.47 177.193C85.392 176.263 59.99 141.393 54.019 125.382C53.5652 124.143 53.3622 122.826 53.422 121.508C53.4817 120.19 53.8029 118.897 54.367 117.704C55.586 115.274 57.879 113.553 61.181 112.591C61.553 112.482 61.927 112.379 62.302 112.276C63.4904 111.979 64.6556 111.595 65.788 111.127C71.427 108.619 80.22 102.627 75.748 90.6552C72.129 80.9772 56.359 63.0142 41.988 58.0322C36.179 56.0172 31.144 56.2632 27.026 58.7622L26.736 58.3772Z" fill="black"/></g><path id="Path 7580" d="M65.977 111.55C62.7835 101.653 57.3707 92.6169 50.152 85.1311C40.733 75.5511 25.618 69.0401 19.045 66.5171C20.5608 64.1671 22.3659 62.0169 24.418 60.1171C25.066 59.5366 25.7577 59.0067 26.487 58.5321C26.535 58.4991 26.579 58.4731 26.616 58.4511L26.737 58.3741L26.781 58.3481C43.752 48.0481 71.336 77.5021 76.188 90.4781C80.267 101.393 73.878 108.032 65.978 111.546" fill="#545454"/><path id="Path 7581" d="M65.977 112.021C65.8765 112.021 65.7785 111.989 65.6975 111.93C65.6165 111.87 65.5567 111.786 65.527 111.69C62.3388 101.872 56.9673 92.9048 49.816 85.461C40.372 75.855 25.033 69.32 18.876 66.961C18.8102 66.9357 18.751 66.8959 18.7026 66.8446C18.6542 66.7932 18.618 66.7317 18.5966 66.6645C18.5752 66.5973 18.5692 66.5262 18.5789 66.4564C18.5887 66.3865 18.614 66.3198 18.653 66.261C20.1908 63.8784 22.0226 61.6989 24.105 59.774C24.7713 59.1777 25.4824 58.6335 26.232 58.146C26.269 58.119 26.318 58.0901 26.36 58.0651L26.483 57.987L26.527 57.961C30.905 55.303 36.207 55.029 42.295 57.141C56.908 62.207 72.947 80.479 76.629 90.324C81.372 103.016 72.111 109.345 66.169 111.988C66.1089 112.015 66.0438 112.029 65.978 112.029M19.768 66.299C26.306 68.849 41.188 75.349 50.488 84.808C57.6171 92.2308 63.0065 101.146 66.266 110.908C71.907 108.278 80.094 102.289 75.747 90.654C72.128 80.976 56.358 63.014 41.988 58.031C36.179 56.017 31.144 56.263 27.026 58.761L26.739 58.383L26.985 58.783L26.868 58.857C26.819 58.886 26.789 58.903 26.758 58.926C26.044 59.3905 25.3667 59.909 24.732 60.477C22.85 62.2107 21.1834 64.1644 19.768 66.296" fill="black"/><path id="Path 7582" d="M155.78 194.887C155.863 198.295 153.814 203.397 149.643 208.52C147.074 203.056 141.103 193.989 132.755 184.279C125.889 176.432 117.226 170.364 107.505 166.592C110.123 162.818 113.863 159.964 118.194 158.433C132.079 153.579 155.525 184.732 155.78 194.887Z" fill="#545454"/><path id="Path 7583" d="M149.645 208.992C149.626 208.993 149.607 208.993 149.588 208.992C149.509 208.982 149.434 208.953 149.369 208.906C149.305 208.859 149.253 208.797 149.219 208.725C146.925 203.847 141.302 194.944 132.4 184.59C125.574 176.827 116.988 170.81 107.361 167.043C107.29 167.019 107.227 166.978 107.175 166.925C107.122 166.871 107.084 166.806 107.061 166.735C107.038 166.665 107.033 166.59 107.045 166.516C107.057 166.443 107.085 166.374 107.129 166.314C109.805 162.466 113.621 159.555 118.04 157.992C121.959 156.624 126.968 157.932 132.53 161.776C144.308 169.915 156.069 187.613 156.252 194.876C156.345 198.691 154.011 203.903 150.009 208.818C149.965 208.872 149.909 208.916 149.846 208.946C149.783 208.976 149.715 208.992 149.645 208.992ZM108.267 166.368C117.825 170.186 126.341 176.218 133.114 183.968C141.681 193.933 147.242 202.584 149.743 207.638C153.272 203.126 155.392 198.293 155.31 194.897C155.133 187.833 143.573 170.545 131.995 162.544C126.695 158.878 121.973 157.609 118.352 158.875C114.311 160.296 110.795 162.907 108.268 166.366" fill="black"/><path id="Path 7584" d="M36.938 126.154C36.938 126.154 45.911 154.595 64.364 172.879C82.817 191.163 100.931 199.966 100.931 199.966" fill="white"/></g><path id="Path 7585" d="M100.93 200.437C100.859 200.437 100.788 200.421 100.724 200.389C87.2241 193.182 74.8603 184.025 64.0309 173.213C45.7079 155.058 36.5779 126.58 36.4879 126.295C36.4676 126.236 36.4594 126.173 36.4638 126.11C36.4682 126.047 36.485 125.986 36.5134 125.93C36.5418 125.874 36.5811 125.824 36.6291 125.783C36.677 125.742 36.7326 125.712 36.7926 125.693C36.8526 125.674 36.9157 125.667 36.9784 125.673C37.041 125.679 37.1019 125.697 37.1573 125.727C37.2128 125.756 37.2618 125.797 37.3014 125.846C37.341 125.894 37.3704 125.951 37.3879 126.011C37.4769 126.294 46.5399 154.554 64.6959 172.544C75.4514 183.285 87.7305 192.383 101.138 199.544C101.237 199.589 101.318 199.667 101.366 199.764C101.414 199.862 101.427 199.973 101.403 200.079C101.379 200.185 101.318 200.279 101.232 200.346C101.146 200.412 101.04 200.447 100.931 200.444" fill="black"/></g><path id="Path 7586" d="M31.549 137.822C29.455 140.05 21.18 140.851 21.18 140.851C21.18 140.851 17.712 148.668 9.26596 144.151C0.819965 139.634 -1.27603 130.138 8.55297 119.215C18.533 108.126 30.844 109.089 34.053 116.177C35.023 118.325 31.889 118.921 28.653 119.031C33.267 119.082 36.376 121.044 35.718 123.306C34.997 125.791 32.056 125.89 32.056 125.89L31.891 125.937C32.459 126.067 36.309 127.053 35.905 129.563C35.47 132.271 31.744 133.295 31.744 133.295C31.744 133.295 34.487 134.695 31.552 137.82" fill="white"/><path id="Path 7587" d="M14.208 146.03C12.3919 145.976 10.6173 145.474 9.04197 144.569C4.94197 142.374 2.41297 139.146 1.72797 135.233C0.851975 130.233 3.08997 124.582 8.20197 118.903C13.758 112.729 20.702 109.603 26.785 110.55C28.4216 110.734 29.9852 111.329 31.3304 112.28C32.6755 113.23 33.7586 114.505 34.479 115.986C34.6312 116.265 34.7085 116.579 34.7034 116.897C34.6983 117.215 34.611 117.527 34.45 117.801C33.9303 118.475 33.1744 118.926 32.335 119.064C33.6466 119.361 34.8289 120.069 35.709 121.086C35.9683 121.413 36.1454 121.798 36.2254 122.207C36.3054 122.617 36.2861 123.04 36.169 123.44C35.9906 124.041 35.6693 124.591 35.2325 125.041C34.7958 125.491 34.2566 125.829 33.661 126.025C35.298 126.74 36.64 127.95 36.368 129.64C36.022 131.795 33.898 132.963 32.693 133.459C33.028 133.814 33.2528 134.259 33.34 134.74C33.522 135.782 33.04 136.927 31.893 138.14C29.893 140.265 22.958 141.127 21.493 141.288C20.4719 143.277 18.7528 144.82 16.665 145.621C15.8759 145.89 15.0475 146.025 14.214 146.021M24.603 111.321C19.357 111.321 13.63 114.281 8.90797 119.528C3.99797 124.984 1.83797 130.357 2.66197 135.065C3.29497 138.683 5.66197 141.68 9.49197 143.733C12.025 145.087 14.332 145.423 16.349 144.733C18.2728 143.968 19.843 142.514 20.754 140.655C20.7879 140.579 20.8414 140.513 20.909 140.465C20.9767 140.416 21.056 140.386 21.139 140.378C23.392 140.159 29.593 139.216 31.21 137.495C31.592 137.179 31.8986 136.781 32.1073 136.332C32.316 135.882 32.4214 135.391 32.416 134.895C32.3587 134.647 32.2506 134.413 32.0985 134.209C31.9463 134.005 31.7534 133.835 31.532 133.709C31.4473 133.666 31.3776 133.598 31.3321 133.515C31.2866 133.431 31.2674 133.336 31.277 133.242C31.2866 133.147 31.3246 133.058 31.386 132.985C31.4474 132.913 31.5293 132.86 31.621 132.835C31.655 132.825 35.061 131.855 35.441 129.483C35.781 127.37 32.196 126.483 31.787 126.391C31.6847 126.368 31.5932 126.311 31.5268 126.23C31.4605 126.149 31.423 126.048 31.4205 125.943C31.418 125.838 31.4505 125.736 31.5129 125.651C31.5753 125.567 31.664 125.506 31.765 125.478L31.931 125.432C31.9671 125.422 32.0044 125.416 32.042 125.415C32.147 125.415 34.653 125.29 35.268 123.17C35.3436 122.909 35.3547 122.633 35.3004 122.367C35.246 122.101 35.1279 121.852 34.956 121.641C34.014 120.371 31.539 119.53 28.651 119.498C28.526 119.5 28.4057 119.451 28.3163 119.364C28.2269 119.277 28.1759 119.157 28.1745 119.033C28.173 118.908 28.2212 118.787 28.3085 118.698C28.3958 118.609 28.515 118.558 28.64 118.556C32.4 118.428 33.395 117.712 33.654 117.296C33.7334 117.153 33.7726 116.991 33.7675 116.828C33.7624 116.664 33.7131 116.505 33.625 116.367C32.9675 115.03 31.9831 113.88 30.7629 113.025C29.5427 112.17 28.1263 111.636 26.645 111.474C25.9693 111.37 25.2866 111.318 24.603 111.319" fill="black"/><path id="Path 7588" d="M31.742 133.299C29.4057 132.537 26.8766 132.612 24.59 133.513C22.7672 134.317 21.0501 135.341 19.477 136.563" fill="white"/><path id="Path 7589" d="M19.479 137.035C19.3809 137.035 19.2851 137.005 19.2052 136.948C19.1252 136.891 19.065 136.811 19.033 136.718C19.0009 136.625 18.9986 136.525 19.0264 136.431C19.0542 136.337 19.1107 136.254 19.188 136.193C20.7965 134.94 22.5551 133.892 24.423 133.074C26.8186 132.125 29.4722 132.049 31.918 132.861C32.0341 132.907 32.1273 132.997 32.1769 133.112C32.2265 133.227 32.2285 133.356 32.1825 133.473C32.1364 133.589 32.0462 133.682 31.9315 133.732C31.8168 133.781 31.6871 133.783 31.571 133.737C29.3434 133.026 26.939 133.102 24.7609 133.953C22.9826 134.741 21.3067 135.742 19.77 136.934C19.6872 136.999 19.5851 137.034 19.48 137.034" fill="black"/><path id="Path 7590" d="M31.888 125.939C29.6671 125.943 27.4558 126.229 25.307 126.79C22.8327 127.217 20.4806 128.176 18.413 129.601" fill="white"/><path id="Path 7591" d="M18.414 130.072C18.3166 130.073 18.2214 130.043 18.1416 129.987C18.0618 129.931 18.0013 129.852 17.9684 129.76C17.9355 129.669 17.9318 129.569 17.9579 129.475C17.9839 129.381 18.0385 129.298 18.114 129.236C20.2374 127.76 22.6586 126.768 25.207 126.329C27.4004 125.756 29.6581 125.467 31.925 125.469C32.0496 125.479 32.1652 125.538 32.2462 125.634C32.3272 125.729 32.3671 125.852 32.357 125.977C32.3469 126.102 32.2877 126.217 32.1925 126.298C32.0972 126.379 31.9737 126.419 31.849 126.409C29.6747 126.425 27.5105 126.708 25.405 127.251C23.0042 127.671 20.7203 128.597 18.705 129.968C18.6195 130.035 18.5135 130.07 18.405 130.068" fill="black"/><path id="Path 7592" d="M28.651 119.033C26.1052 118.951 23.5622 119.267 21.114 119.97C17.193 121.129 15.887 122.83 15.887 122.83" fill="white"/><path id="Path 7593" d="M15.887 123.3C15.7992 123.3 15.7131 123.276 15.6385 123.229C15.564 123.183 15.5038 123.117 15.4649 123.038C15.426 122.959 15.4099 122.871 15.4184 122.784C15.4269 122.696 15.4596 122.613 15.5129 122.543C15.5699 122.468 16.958 120.706 20.979 119.517C23.4791 118.794 26.0779 118.471 28.679 118.561C28.8037 118.569 28.9204 118.626 29.0033 118.719C29.0862 118.813 29.1285 118.935 29.121 119.06C29.1134 119.185 29.0566 119.302 28.963 119.384C28.8694 119.467 28.7467 119.51 28.622 119.502C26.131 119.427 23.6434 119.736 21.247 120.42C17.555 121.511 16.272 123.101 16.26 123.12C16.2158 123.177 16.1593 123.222 16.0949 123.254C16.0304 123.285 15.9596 123.301 15.8879 123.301" fill="black"/><path id="Path 7594" d="M134.553 183.218C129.2 182.828 122.991 186.578 125.153 190.878C126.361 191.968 127.829 192.729 129.416 193.089C131.003 193.449 132.656 193.396 134.216 192.935" fill="white"/><path id="Path 7595" d="M131.463 193.765C128.999 193.799 126.616 192.882 124.812 191.203C124.78 191.169 124.753 191.131 124.732 191.089C124.363 190.396 124.196 189.614 124.249 188.831C124.302 188.048 124.573 187.296 125.032 186.659C126.705 184.154 130.814 182.473 134.589 182.748C134.651 182.752 134.711 182.769 134.766 182.797C134.822 182.825 134.871 182.863 134.911 182.91C134.952 182.957 134.983 183.011 135.002 183.07C135.022 183.128 135.029 183.19 135.025 183.252C135.021 183.314 135.004 183.374 134.976 183.429C134.948 183.485 134.91 183.534 134.863 183.574C134.816 183.615 134.762 183.646 134.703 183.665C134.645 183.685 134.583 183.693 134.521 183.688C131.115 183.442 127.291 184.975 125.821 187.183C125.463 187.671 125.248 188.249 125.2 188.853C125.151 189.456 125.272 190.061 125.549 190.6C126.698 191.615 128.087 192.319 129.584 192.648C131.081 192.977 132.637 192.919 134.106 192.479C134.166 192.464 134.228 192.46 134.29 192.469C134.351 192.478 134.41 192.498 134.463 192.53C134.516 192.562 134.563 192.603 134.6 192.653C134.637 192.702 134.664 192.759 134.679 192.819C134.695 192.879 134.698 192.941 134.689 193.002C134.681 193.063 134.66 193.122 134.628 193.176C134.597 193.229 134.555 193.275 134.506 193.312C134.456 193.35 134.4 193.377 134.34 193.392C133.403 193.637 132.438 193.762 131.47 193.766" fill="black"/><path id="Path 7596" d="M134.554 183.218C139.399 183.777 144.208 184.622 148.954 185.747L152.407 207.553C152.407 207.553 142.738 212.63 137.198 213.693C131.658 214.756 131.729 210.347 131.729 210.347C131.729 210.347 127.542 210.027 126.383 208.438C126.06 207.926 125.889 207.332 125.89 206.726C125.891 206.12 126.064 205.526 126.389 205.015C126.389 205.015 123.089 204.972 121.733 202.885C120.377 200.798 122.593 199.171 122.593 199.171C121.318 199.409 116.12 198.071 116.956 194.346C117.792 190.621 131.428 188.5 131.428 188.5" fill="white"/><path id="Path 7597" d="M135.598 214.328C134.524 214.379 133.468 214.042 132.623 213.378C131.868 212.709 131.39 211.781 131.282 210.778C130.128 210.65 127.065 210.178 125.997 208.715C125.664 208.242 125.458 207.691 125.399 207.116C125.341 206.54 125.431 205.96 125.661 205.429C124.82 205.371 124 205.137 123.255 204.743C122.509 204.348 121.855 203.802 121.333 203.14C120.975 202.612 120.798 201.982 120.828 201.345C120.858 200.708 121.095 200.098 121.501 199.606C119.987 199.397 118.576 198.722 117.462 197.676C117.017 197.237 116.693 196.689 116.523 196.087C116.352 195.485 116.342 194.849 116.491 194.242C117.362 190.323 129.921 188.256 131.35 188.034C131.474 188.015 131.6 188.045 131.701 188.119C131.802 188.193 131.869 188.304 131.888 188.428C131.908 188.551 131.877 188.677 131.803 188.778C131.729 188.879 131.619 188.947 131.495 188.966C127.788 189.544 118.032 191.656 117.411 194.448C117.296 194.903 117.302 195.381 117.43 195.833C117.558 196.285 117.803 196.695 118.14 197.022C119.327 198.116 120.886 198.718 122.501 198.706C122.606 198.687 122.714 198.703 122.809 198.754C122.903 198.804 122.977 198.884 123.02 198.982C123.062 199.08 123.07 199.19 123.043 199.293C123.015 199.396 122.953 199.487 122.867 199.55C122.792 199.605 121.035 200.944 122.124 202.628C123.324 204.483 126.36 204.543 126.39 204.543C126.474 204.544 126.557 204.567 126.629 204.611C126.701 204.655 126.76 204.717 126.8 204.791C126.84 204.866 126.859 204.949 126.855 205.033C126.852 205.118 126.826 205.199 126.78 205.27C126.503 205.7 126.354 206.2 126.35 206.712C126.346 207.224 126.487 207.726 126.758 208.16C127.604 209.32 130.658 209.793 131.758 209.878C131.878 209.887 131.99 209.942 132.07 210.031C132.151 210.119 132.195 210.236 132.193 210.356C132.204 210.791 132.302 211.219 132.481 211.615C132.66 212.011 132.917 212.368 133.236 212.663C134.077 213.363 135.376 213.557 137.102 213.231C141.968 212.297 150.21 208.15 151.88 207.292L148.53 186.136C143.911 185.043 139.231 184.225 134.514 183.689C134.39 183.68 134.275 183.622 134.193 183.529C134.111 183.435 134.07 183.313 134.078 183.189C134.082 183.127 134.098 183.067 134.125 183.012C134.152 182.956 134.19 182.906 134.237 182.866C134.283 182.825 134.337 182.794 134.396 182.775C134.454 182.755 134.516 182.747 134.578 182.752C139.448 183.315 144.28 184.163 149.05 185.292C149.141 185.314 149.224 185.362 149.287 185.43C149.351 185.499 149.392 185.585 149.407 185.677L152.86 207.484C152.875 207.581 152.86 207.681 152.816 207.769C152.771 207.857 152.7 207.929 152.613 207.975C152.213 208.184 142.819 213.096 137.274 214.16C136.72 214.269 136.156 214.327 135.591 214.331" fill="black"/><path id="Path 7598" d="M131.993 210.218C133.501 209.888 134.964 209.379 136.352 208.703Z" fill="white"/><path id="Path 7599" d="M131.993 210.69C131.877 210.689 131.764 210.646 131.678 210.567C131.592 210.489 131.538 210.381 131.526 210.265C131.514 210.149 131.546 210.033 131.615 209.939C131.684 209.845 131.785 209.78 131.899 209.756C133.365 209.433 134.788 208.939 136.138 208.283C136.249 208.232 136.375 208.226 136.49 208.266C136.605 208.306 136.7 208.389 136.756 208.497C136.811 208.606 136.822 208.731 136.787 208.848C136.752 208.965 136.673 209.063 136.567 209.123C135.142 209.82 133.638 210.343 132.087 210.68C132.056 210.686 132.025 210.69 131.993 210.69Z" fill="black"/><path id="Path 7600" d="M122.589 199.178C124.563 199.161 126.508 198.695 128.276 197.815Z" fill="white"/><path id="Path 7601" d="M122.651 199.646H122.58C122.455 199.643 122.336 199.592 122.25 199.502C122.163 199.412 122.116 199.291 122.118 199.166C122.117 199.104 122.13 199.042 122.154 198.984C122.178 198.927 122.213 198.875 122.258 198.832C122.303 198.788 122.356 198.755 122.414 198.733C122.472 198.71 122.535 198.7 122.597 198.703C124.491 198.682 126.355 198.235 128.053 197.396C128.163 197.337 128.292 197.324 128.412 197.36C128.471 197.377 128.526 197.407 128.574 197.446C128.622 197.485 128.662 197.533 128.691 197.588C128.721 197.642 128.739 197.702 128.745 197.763C128.752 197.825 128.746 197.887 128.728 197.947C128.71 198.006 128.681 198.061 128.642 198.109C128.603 198.157 128.555 198.197 128.5 198.226C126.683 199.137 124.683 199.623 122.651 199.646Z" fill="black"/><path id="Path 7602" d="M126.387 205.015C126.387 205.015 128.435 205.765 131.243 203.391Z" fill="white"/><path id="Path 7603" d="M127.235 205.597C126.893 205.606 126.551 205.558 126.224 205.457C126.112 205.411 126.022 205.323 125.973 205.212C125.924 205.101 125.92 204.975 125.961 204.861C126.002 204.747 126.086 204.653 126.194 204.599C126.303 204.545 126.428 204.534 126.544 204.57C126.627 204.6 128.409 205.17 130.938 203.03C131.034 202.949 131.157 202.91 131.282 202.92C131.406 202.931 131.522 202.99 131.602 203.086C131.683 203.181 131.723 203.305 131.712 203.429C131.702 203.554 131.643 203.669 131.547 203.75C130.378 204.863 128.847 205.519 127.235 205.597Z" fill="black"/><path id="Path 7604" d="M164.997 110.621C164.997 110.621 185.409 112.496 189.797 122.831C194.185 133.166 220.944 176.05 209.625 195.131C200.76 210.078 151.1 210.531 151.1 210.531L145.533 181.578L187.116 176.84L159.616 133.63L164.997 110.621Z" fill="#FDD301"/><path id="Path 7605" d="M151.099 211.002C150.99 211.002 150.884 210.963 150.799 210.893C150.715 210.824 150.658 210.727 150.637 210.619L145.07 181.666C145.058 181.602 145.059 181.537 145.073 181.474C145.087 181.41 145.114 181.351 145.153 181.298C145.191 181.246 145.24 181.202 145.296 181.17C145.352 181.137 145.415 181.117 145.479 181.109L186.314 176.456L159.214 133.882C159.147 133.776 159.124 133.648 159.152 133.525C159.179 133.402 159.254 133.296 159.361 133.229C159.467 133.161 159.595 133.139 159.718 133.167C159.84 133.194 159.947 133.269 160.014 133.375L187.514 176.586C187.557 176.654 187.582 176.731 187.587 176.81C187.592 176.89 187.576 176.97 187.542 177.042C187.507 177.114 187.455 177.176 187.39 177.223C187.325 177.269 187.249 177.298 187.17 177.307L146.092 181.987L151.563 210.441C151.587 210.564 151.56 210.691 151.49 210.794C151.42 210.898 151.312 210.969 151.189 210.993C151.159 210.998 151.129 211.002 151.099 211.002Z" fill="black"/><path id="Path 7613" d="M50.194 32.252C51.182 36.9896 53.5526 41.3278 57.0062 44.7181C60.4597 48.1084 64.8411 50.3984 69.5961 51.2986C74.3512 52.1988 79.2665 51.6687 83.7203 49.7754C88.1741 47.8821 91.9664 44.7106 94.6178 40.662C97.2691 36.6134 98.6604 31.8695 98.6156 27.0302C98.5708 22.1908 97.092 17.4735 94.3661 13.4746C91.6403 9.47577 87.7899 6.37502 83.3018 4.56448C78.8137 2.75395 73.8896 2.31495 69.152 3.303C62.7991 4.62792 57.2328 8.42222 53.6775 13.8512C50.1222 19.2802 48.8691 25.8991 50.194 32.252Z" fill="white"/><path id="Path 7614" d="M62.488 34.9322L62.329 34.1702L63.105 33.0232C64.981 30.3072 65.792 28.9012 65.518 27.5172C65.4922 27.2681 65.4107 27.028 65.2795 26.8147C65.1484 26.6013 64.971 26.4202 64.7605 26.2846C64.55 26.1491 64.3116 26.0626 64.0632 26.0315C63.8147 26.0004 63.5624 26.0256 63.325 26.1052C62.612 26.2819 61.9817 26.6995 61.541 27.2872L60.963 26.4952C61.5645 25.7369 62.4145 25.2156 63.363 25.0232C63.7209 24.9147 64.0978 24.8837 64.4686 24.9321C64.8394 24.9805 65.1956 25.1073 65.5136 25.3041C65.8316 25.5008 66.1041 25.763 66.313 26.0732C66.5218 26.3834 66.6623 26.7345 66.725 27.1032C67.078 28.7952 66.136 30.4192 64.592 32.6832L64 33.5132L64.006 33.5412L68.124 32.6822L68.338 33.7122L62.488 34.9322Z" fill="#1C1B1B"/><path id="Path 7615" d="M73.5569 32.6242L73.0359 30.1242L68.777 31.0122L68.606 30.1942L71.475 23.4892L72.815 23.2102L74.003 28.9102L75.2859 28.6432L75.486 29.6162L74.203 29.8832L74.723 32.3832L73.5569 32.6242ZM72.8329 29.1552L72.1949 26.0952C72.0949 25.6159 72.009 25.1335 71.937 24.6482L71.895 24.6572C71.724 25.2522 71.581 25.6942 71.416 26.1702L69.824 29.7542L69.83 29.7822L72.8329 29.1552Z" fill="#1C1B1B"/><path id="Path 7616" d="M76.4219 32.6151L78.222 21.5701L79.181 21.3701L77.365 32.4181L76.4219 32.6151Z" fill="#1C1B1B"/><path id="Path 7617" d="M85.829 20.5L86 21.318L83.75 30.499L82.467 30.766L84.753 21.828L84.747 21.8L80.263 22.735L80.048 21.705L85.829 20.5Z" fill="#1C1B1B"/><path id="Path 7622" d="M167.955 22.9371C167.852 22.9375 167.75 22.9154 167.656 22.8723C167.563 22.8292 167.48 22.7661 167.413 22.6875C167.346 22.6089 167.298 22.5167 167.27 22.4173C167.243 22.3179 167.238 22.2137 167.255 22.1121C167.917 18.2121 165.02 14.6841 162.047 13.0611C158.557 11.1551 154.359 10.8881 150.698 10.7861C150.399 10.7781 150.101 10.7721 149.806 10.7681C150.782 13.4491 150.706 15.6521 149.564 17.3351C149.031 18.1105 148.286 18.7167 147.419 19.0816C146.551 19.4466 145.597 19.555 144.67 19.3941C143.734 19.203 142.881 18.7212 142.235 18.0173C141.589 17.3134 141.181 16.4233 141.07 15.4741C140.838 13.0191 142.742 11.0091 144.609 10.1811C145.583 9.76471 146.619 9.51036 147.676 9.4281C147.637 9.3511 147.597 9.2731 147.556 9.1961C146.348 6.8901 144.617 4.0561 141.927 2.5961C139.766 1.4271 136.965 1.1201 133.598 1.6871C129.362 2.4478 125.385 4.25803 122.03 6.95229C118.674 9.64655 116.048 13.1389 114.39 17.1101C114.355 17.1962 114.304 17.2746 114.239 17.3408C114.174 17.407 114.096 17.4597 114.011 17.496C113.925 17.5323 113.833 17.5513 113.741 17.5521C113.648 17.5529 113.556 17.5354 113.47 17.5006C113.383 17.4658 113.305 17.4144 113.239 17.3493C113.173 17.2842 113.12 17.2067 113.084 17.1212C113.047 17.0358 113.028 16.944 113.027 16.8511C113.027 16.7583 113.044 16.6662 113.079 16.5801C114.831 12.3871 117.606 8.70012 121.15 5.856C124.694 3.01188 128.894 1.10137 133.367 0.299101C137.051 -0.320899 140.158 0.0361015 142.604 1.3591C145.629 2.9971 147.511 6.0591 148.812 8.5421C148.956 8.8181 149.089 9.08944 149.212 9.3561C149.712 9.3511 150.224 9.3561 150.736 9.3751C154.561 9.4801 158.958 9.7651 162.723 11.8221C166.123 13.6791 169.423 17.7651 168.647 22.3511C168.619 22.5163 168.533 22.6662 168.405 22.7741C168.277 22.882 168.115 22.9408 167.947 22.9401M148.307 10.7991C147.234 10.8349 146.176 11.0635 145.184 11.4741C143.72 12.1241 142.321 13.6601 142.484 15.3411C142.568 15.9863 142.85 16.5894 143.292 17.0671C143.734 17.5447 144.313 17.8732 144.95 18.0071C145.605 18.1185 146.278 18.0397 146.889 17.78C147.501 17.5203 148.025 17.0907 148.399 16.5421C149.33 15.1661 149.299 13.2421 148.311 10.7981" fill="#FDD301"/></g></g></g></g></g><defs><clipPath id="clip0_88_299"><rect width="212.393" height="224" fill="white"/></clipPath></defs><style> @keyframes translateX { 0%, 100% { transform: translateX(0px); } 50% { transform: translateX(4px); } } @keyframes translateY { 0%, 100% { transform: translateY(2px); } 50% { transform: translateY(-2px); } } @keyframes rotateStorm { 0% { transform: rotate(0deg) translate3d(0, 0, 0); } 25% { transform: rotate(3deg) translate3d(0, 0, 0); } 50% { transform: rotate(-3deg) translate3d(0, 0, 0); } 75% { transform: rotate(1deg) translate3d(0, 0, 0); } 100% { transform: rotate(0deg) translate3d(0, 0, 0); } } @keyframes storm { 0% { transform: translate3d(0, 0, 0) translateZ(0); } 25% { transform: translate3d(4px, 0, 0) translateZ(0); } 50% { transform: translate3d(-3px, 0, 0) translateZ(0); } 75% { transform: translate3d(2px, 0, 0) translateZ(0); } 100% { transform: translate3d(0, 0, 0) translateZ(0); } }</style></svg>