<svg width="317" height="61" viewBox="0 0 317 61" fill="none" xmlns="http://www.w3.org/2000/svg">
<path d="M316.988 2.91703C316.961 2.59627 316.961 2.30467 316.934 2.0714C316.88 1.4882 316.799 0.963322 316.691 0.496765C316.205 1.40072 315.665 2.21719 315.071 2.91703C314.044 4.1709 312.856 5.10402 311.533 5.71637C308.157 7.291 303.459 8.07832 297.49 8.07832H85.6057H23.1432C16.7431 8.07832 11.2611 10.5569 6.75124 15.4849C2.48446 20.1213 0.27005 25.6325 0 31.9894C0.243045 37.6464 2.07938 41.9037 5.77906 45.9278C10.2889 50.8558 15.7709 53.3344 22.1711 53.3344H33.4861C39.4542 53.3344 44.1531 54.1217 47.5287 55.6963C48.852 56.3087 50.0402 57.2418 51.0664 58.4956C51.6605 59.1955 52.2006 60.012 52.6867 60.9159C52.7947 60.4494 52.8757 59.9245 52.9297 59.3413C52.9567 59.0788 52.9567 58.8164 52.9837 58.4956C53.0107 58.0874 53.0107 57.5917 53.0107 57.0377C53.0107 51.9055 51.6605 47.7065 49.014 44.3823C44.9633 39.3376 38.239 36.8007 28.8683 36.8007H23.4943C21.928 36.8007 20.6048 36.2175 19.4976 35.022C18.7414 34.2055 18.2554 33.3307 18.0393 32.3101C18.0123 32.2226 18.0123 32.1643 17.9853 32.0769C17.9583 31.9311 17.9313 31.7561 17.9043 31.5811C17.9043 31.4937 17.8773 31.4062 17.8773 31.3187C17.8503 31.1146 17.8503 30.9105 17.8503 30.7063C17.8503 30.5022 17.8503 30.2981 17.8773 30.094C17.9853 28.6652 18.5254 27.4404 19.4976 26.3907C20.6048 25.1951 21.928 24.6119 23.4943 24.6119H61.7063H292.846C302.216 24.6119 308.941 22.075 312.991 17.0304C315.638 13.7062 316.988 9.50715 316.988 4.37502C317.015 3.82098 316.988 3.32527 316.988 2.91703Z" fill="#FAAF40"/>
</svg>
